<?xml version="1.0" encoding="UTF-8" standalone="no"?>
<svg
  width="24"
  height="18"
  viewBox="0 0 24 18"
  version="1.1"
  xmlns="http://www.w3.org/2000/svg"
  xmlns:svg="http://www.w3.org/2000/svg">
  <path
    id="about"
    stroke="currentColor"
    style="display:inline;stroke-width:0.75"
    d="M 11.809432,7.380052 C 11.05064,8.1356676 10.033525,8.549751 8.9857667,8.549751 7.9379566,8.549751 6.9208617,8.1356676 6.1620699,7.380052 5.4016996,6.6228697 4.9667411,5.5866503 4.9667411,4.497518 c 0,-1.0891321 0.4349585,-2.1253506 1.1953288,-2.8825338 0.7587918,-0.75561952 1.7758867,-1.16969922 2.8236968,-1.16969922 1.0477583,0 2.0648733,0.4140797 2.8236653,1.16969922 0.7604,0.7571832 1.19536,1.7934017 1.19536,2.8825338 0,1.0891323 -0.43496,2.1253517 -1.19536,2.882534 z M 1.4536903,17.554715 c -4.819e-4,0 -0.00113,0 -0.00198,-8.8e-5 -0.00442,-9.1e-5 -0.013573,-5.42e-4 -0.026672,-0.0015 -0.02638,-0.0019 -0.06779,-0.0058 -0.119004,-0.01441 -0.1045259,-0.01734 -0.2375897,-0.05129 -0.36558529,-0.115041 -0.12508915,-0.06232 -0.2427705,-0.151464 -0.33126745,-0.283657 -0.0880473,-0.131473 -0.16389711,-0.330481 -0.16389711,-0.63602 0,-0.648989 0.33788502,-2.039715 1.56656545,-3.26322 1.2108426,-1.205764 3.3284163,-2.289781 6.9738643,-2.289781 3.6454548,0 5.7629798,1.084017 6.9739118,2.289781 1.228616,1.223505 1.566517,2.614231 1.566517,3.26322 0,0.305539 -0.07587,0.504547 -0.163877,0.63602 -0.08853,0.132193 -0.206175,0.221341 -0.331268,0.283657 -0.128006,0.06375 -0.261037,0.09771 -0.365632,0.114992 -0.05113,0.0084 -0.09254,0.01252 -0.118967,0.01441 -0.01305,8.96e-4 -0.02221,0.0015 -0.02672,0.0015 -8.03e-4,8.8e-5 -0.0015,8.8e-5 -0.0018,8.8e-5 z M 17.023816,2.2462779 c 0,-0.094026 0.03797,-0.1758856 0.09173,-0.2294194 0.05224,-0.05197 0.110924,-0.070746 0.159454,-0.070746 h 6.028539 c 0.04853,0 0.107191,0.018777 0.159454,0.070746 0.05376,0.05353 0.09173,0.1353895 0.09173,0.2294194 0,0.094026 -0.03797,0.1758845 -0.09173,0.2294194 -0.05224,0.05197 -0.110925,0.070746 -0.159454,0.070746 H 17.275 c -0.04852,0 -0.107191,-0.018777 -0.159454,-0.070746 -0.05375,-0.05353 -0.09173,-0.1353897 -0.09173,-0.2294194 z m 0.09173,4.273062 c 0.05224,-0.05198 0.110924,-0.070746 0.159454,-0.070746 h 6.028539 c 0.04853,0 0.107191,0.018766 0.159454,0.070746 0.05376,0.05353 0.09173,0.1353894 0.09173,0.2294193 0,0.094015 -0.03797,0.1758845 -0.09173,0.2294195 -0.05224,0.05197 -0.110925,0.070746 -0.159454,0.070746 H 17.275 c -0.04852,0 -0.107191,-0.018776 -0.159454,-0.070746 -0.05375,-0.05353 -0.09173,-0.1353984 -0.09173,-0.2294195 0,-0.094026 0.03797,-0.1758845 0.09173,-0.2294193 z m 3.014269,4.5024561 c 0.05224,-0.05194 0.110924,-0.0707 0.159455,-0.0707 h 3.014269 c 0.04853,0 0.107191,0.01872 0.159454,0.0707 0.05376,0.05357 0.09173,0.135432 0.09173,0.229446 0,0.09401 -0.03797,0.175867 -0.09173,0.229445 -0.05224,0.05195 -0.110925,0.0707 -0.159454,0.0707 h -3.01427 c -0.04853,0 -0.107192,-0.01872 -0.159456,-0.0707 -0.05376,-0.05357 -0.09173,-0.135435 -0.09173,-0.229445 0,-0.09401 0.03797,-0.175868 0.09173,-0.229446 z m 0,4.50248 c 0.05224,-0.05195 0.110924,-0.0707 0.159455,-0.0707 h 3.014269 c 0.04853,0 0.107191,0.01873 0.159454,0.0707 0.05376,0.05358 0.09173,0.135434 0.09173,0.229446 0,0.09402 -0.03797,0.175868 -0.09173,0.229447 -0.05224,0.05195 -0.110925,0.0707 -0.159454,0.0707 h -3.01427 c -0.04853,0 -0.107192,-0.01873 -0.159456,-0.0707 -0.05376,-0.05357 -0.09173,-0.135435 -0.09173,-0.229447 0,-0.094 0.03797,-0.175867 0.09173,-0.229446 z" />
</svg>
