<!-- icons.svg -->
<svg xmlns="http://www.w3.org/2000/svg" style="display: none;">
  <symbol id="home">
    <path
      stroke="currentColor"
      d="M 20.669568,6.1420781 V 17.669567 h -6.44465 V 11.281804 10.82253 H 13.714943 10.285068 9.7750931 v 0.459274 6.387763 H 3.330432 V 6.1420781 l 8.669567,-5.81165159 z"
      style="stroke-width:0.75;stroke-linejoin:round;" />
  </symbol>
  <symbol id="about">
    <path
      stroke="currentColor"
      style="display:inline;stroke-width:0.75"
      d="M 11.809432,7.380052 C 11.05064,8.1356676 10.033525,8.549751 8.9857667,8.549751 7.9379566,8.549751 6.9208617,8.1356676 6.1620699,7.380052 5.4016996,6.6228697 4.9667411,5.5866503 4.9667411,4.497518 c 0,-1.0891321 0.4349585,-2.1253506 1.1953288,-2.8825338 0.7587918,-0.75561952 1.7758867,-1.16969922 2.8236968,-1.16969922 1.0477583,0 2.0648733,0.4140797 2.8236653,1.16969922 0.7604,0.7571832 1.19536,1.7934017 1.19536,2.8825338 0,1.0891323 -0.43496,2.1253517 -1.19536,2.882534 z M 1.4536903,17.554715 c -4.819e-4,0 -0.00113,0 -0.00198,-8.8e-5 -0.00442,-9.1e-5 -0.013573,-5.42e-4 -0.026672,-0.0015 -0.02638,-0.0019 -0.06779,-0.0058 -0.119004,-0.01441 -0.1045259,-0.01734 -0.2375897,-0.05129 -0.36558529,-0.115041 -0.12508915,-0.06232 -0.2427705,-0.151464 -0.33126745,-0.283657 -0.0880473,-0.131473 -0.16389711,-0.330481 -0.16389711,-0.63602 0,-0.648989 0.33788502,-2.039715 1.56656545,-3.26322 1.2108426,-1.205764 3.3284163,-2.289781 6.9738643,-2.289781 3.6454548,0 5.7629798,1.084017 6.9739118,2.289781 1.228616,1.223505 1.566517,2.614231 1.566517,3.26322 0,0.305539 -0.07587,0.504547 -0.163877,0.63602 -0.08853,0.132193 -0.206175,0.221341 -0.331268,0.283657 -0.128006,0.06375 -0.261037,0.09771 -0.365632,0.114992 -0.05113,0.0084 -0.09254,0.01252 -0.118967,0.01441 -0.01305,8.96e-4 -0.02221,0.0015 -0.02672,0.0015 -8.03e-4,8.8e-5 -0.0015,8.8e-5 -0.0018,8.8e-5 z M 17.023816,2.2462779 c 0,-0.094026 0.03797,-0.1758856 0.09173,-0.2294194 0.05224,-0.05197 0.110924,-0.070746 0.159454,-0.070746 h 6.028539 c 0.04853,0 0.107191,0.018777 0.159454,0.070746 0.05376,0.05353 0.09173,0.1353895 0.09173,0.2294194 0,0.094026 -0.03797,0.1758845 -0.09173,0.2294194 -0.05224,0.05197 -0.110925,0.070746 -0.159454,0.070746 H 17.275 c -0.04852,0 -0.107191,-0.018777 -0.159454,-0.070746 -0.05375,-0.05353 -0.09173,-0.1353897 -0.09173,-0.2294194 z m 0.09173,4.273062 c 0.05224,-0.05198 0.110924,-0.070746 0.159454,-0.070746 h 6.028539 c 0.04853,0 0.107191,0.018766 0.159454,0.070746 0.05376,0.05353 0.09173,0.1353894 0.09173,0.2294193 0,0.094015 -0.03797,0.1758845 -0.09173,0.2294195 -0.05224,0.05197 -0.110925,0.070746 -0.159454,0.070746 H 17.275 c -0.04852,0 -0.107191,-0.018776 -0.159454,-0.070746 -0.05375,-0.05353 -0.09173,-0.1353984 -0.09173,-0.2294195 0,-0.094026 0.03797,-0.1758845 0.09173,-0.2294193 z m 3.014269,4.5024561 c 0.05224,-0.05194 0.110924,-0.0707 0.159455,-0.0707 h 3.014269 c 0.04853,0 0.107191,0.01872 0.159454,0.0707 0.05376,0.05357 0.09173,0.135432 0.09173,0.229446 0,0.09401 -0.03797,0.175867 -0.09173,0.229445 -0.05224,0.05195 -0.110925,0.0707 -0.159454,0.0707 h -3.01427 c -0.04853,0 -0.107192,-0.01872 -0.159456,-0.0707 -0.05376,-0.05357 -0.09173,-0.135435 -0.09173,-0.229445 0,-0.09401 0.03797,-0.175868 0.09173,-0.229446 z m 0,4.50248 c 0.05224,-0.05195 0.110924,-0.0707 0.159455,-0.0707 h 3.014269 c 0.04853,0 0.107191,0.01873 0.159454,0.0707 0.05376,0.05358 0.09173,0.135434 0.09173,0.229446 0,0.09402 -0.03797,0.175868 -0.09173,0.229447 -0.05224,0.05195 -0.110925,0.0707 -0.159454,0.0707 h -3.01427 c -0.04853,0 -0.107192,-0.01873 -0.159456,-0.0707 -0.05376,-0.05357 -0.09173,-0.135435 -0.09173,-0.229447 0,-0.094 0.03797,-0.175867 0.09173,-0.229446 z" />
  </symbol>
  <symbol id="laptop">
    <path
      stroke="currentColor"
      style="stroke-width:0.75;stroke-linecap:butt;stroke-linejoin:round;"
      d="M 1.8293481,17.080851 H 22.23123 Z M 23.624964,16.716879 c 0,0 -1.325701,0.907881 -1.957007,0.907881 H 2.3322491 c -0.6314111,0 -1.95721298,-0.907881 -1.95721298,-0.907881 z M 3.562848,14.598517 c -0.4479459,0 -0.8209279,-0.146987 -1.144788,-0.456756 C 2.0939291,13.831722 1.9369052,13.471017 1.9369052,13.034871 V 1.9385727 c 0,-0.4361375 0.1570239,-0.796821 0.4811548,-1.10684446 C 2.7419201,0.52195888 3.1149021,0.375 3.562848,0.375 h 16.874595 c 0.448005,0 0.820986,0.14695888 1.144856,0.45672824 0.324063,0.31002346 0.481165,0.67070696 0.481165,1.10684446 V 13.034871 c 0,0.436146 -0.157102,0.796851 -0.481165,1.10689 -0.32387,0.309769 -0.696851,0.456756 -1.144856,0.456756 z"
    />
  </symbol>
  <symbol id="school">
    <path
      stroke="currentColor"
      style="stroke-width:0.75;stroke-linejoin:round"
      d="M 23.360513,13.594881 V 6.9807408 Z m -0.637342,-0.064 V 6.9167408 Z m -0.680468,0 V 6.9167408 Z m -0.520222,-6.3545702 2.116113,-1.05584 z m -2.116111,1.05583 -2.116113,1.00783 z m -14.8127856,0 2.1161122,1.00783 z m 7.4063926,9.4064602 -7.4063926,-3.6474 V 8.2321408 l -4.23222448,-2.11167 11.63861708,-5.75907 11.638617,5.75907 V 13.799231 H 21.522481 V 7.1763108 l -2.116111,1.05583 v 5.7590602 z m 5.29028,-8.3986302 -5.29028,2.6395702 -5.2902804,-2.6395702 5.2902804,2.6395702 z" />
  </symbol>
  <symbol id="portfolio">
    <path
      stroke="currentColor"
      style="display:inline;stroke-width:0.75"
      d="m 2.5147246,17.560359 c -0.5912932,0 -1.084959,-0.164921 -1.4810102,-0.494843 C 0.63766508,16.735593 0.43963997,16.324294 0.43963997,15.831698 V 5.3784409 c 0,-0.4925723 0.19802511,-0.9038316 0.59407443,-1.233762 0.3960512,-0.3299303 0.889717,-0.4948995 1.4810102,-0.4948995 h 5.631822 V 2.168034 c 0,-0.4924036 0.1980291,-0.9035667 0.5940774,-1.23349698 0.3960482,-0.32993115 0.8897142,-0.49489719 1.481007,-0.49489719 h 3.556738 c 0.591312,0 1.08494,0.16496604 1.480978,0.49489719 0.396039,0.32993028 0.594106,0.74109338 0.594106,1.23349698 v 1.4817454 h 5.631823 c 0.591312,0 1.084939,0.1649692 1.480978,0.4948995 0.396038,0.3299304 0.594106,0.7411897 0.594106,1.233762 V 15.831698 c 0,0.492596 -0.198068,0.903895 -0.594106,1.233818 -0.396039,0.329923 -0.889666,0.494844 -1.480978,0.494844 z M 9.4310279,3.6497794 H 14.569001 V 2.168034 c 0,-0.164608 -0.08237,-0.3154847 -0.247006,-0.45263 C 14.157356,1.5782588 13.976148,1.5096901 13.778369,1.5096901 h -3.556738 c -0.197807,0 -0.3790254,0.068569 -0.5436546,0.2057139 -0.1646291,0.1371453 -0.2469485,0.288022 -0.2469485,0.45263 z m -1.2844813,0 h 1.2844813 z m 6.4224544,0 h 1.284452 z" />
  </symbol>
  <symbol id="settings">
    <path
      id="cogwheel"
      style="display:inline;fill:transparent;stroke:currentColor;stroke-width:1;stroke-linejoin:round;stroke-linecap:round;"
      d="M 11.971197,8.5166423 C 10.36612,8.4781655 8.8768336,9.7699584 8.6180583,11.369695 c -0.2517816,1.318699 0.3332294,2.749238 1.4428147,3.486748 0.95217,0.709394 2.268508,0.816168 3.33401,0.314747 1.137586,-0.485691 1.929466,-1.646221 2.028028,-2.888296 0.197298,-1.825609 -1.289847,-3.6315804 -3.095133,-3.7535609 -0.118579,-0.010017 -0.237609,-0.013969 -0.356581,-0.012691 z M 8.8860317,23.522834 8.4330905,19.835526 C 8.1877477,19.739504 7.9565592,19.624273 7.7395247,19.489842 7.5224906,19.35541 7.3101746,19.211374 7.1025768,19.057735 L 3.7338286,20.498091 0.61985983,15.024743 3.5356671,12.777791 c -0.018872,-0.134433 -0.028309,-0.264064 -0.028309,-0.388895 v -0.777792 c 0,-0.12483 0.00943,-0.254461 0.02831,-0.388895 L 0.61985983,8.9752565 3.7338286,3.5019103 7.1025768,4.9422645 C 7.3101746,4.7886268 7.5272087,4.6445916 7.7536793,4.5101583 7.9801496,4.3757252 8.2066203,4.2604968 8.4330905,4.1644733 L 8.8860317,0.47716641 H 15.11397 l 0.45294,3.68730689 c 0.245342,0.096024 0.476533,0.2112519 0.693565,0.345685 0.217036,0.1344333 0.429352,0.2784685 0.63695,0.4321062 l 3.368747,-1.4403542 3.113968,5.4733462 -2.915808,2.2469525 c 0.01887,0.134434 0.02832,0.264065 0.02832,0.388895 v 0.777792 c 0,0.124831 -0.01887,0.254462 -0.05662,0.388895 l 2.915806,2.246952 -3.113967,5.473348 -3.34044,-1.440356 c -0.207602,0.153639 -0.424639,0.297675 -0.651109,0.432107 -0.226471,0.134431 -0.452943,0.249662 -0.679412,0.345684 l -0.452941,3.687308 z"
    />
    <path
      style="display:inline;stroke:currentColor;stroke-width:1;"
      d="m 11.970517,8.4853613 c -1.63977,-0.038828 -3.1612502,1.264714 -3.425619,2.8789987 -0.2572247,1.330691 0.3404318,2.77424 1.474002,3.518457 0.972753,0.715845 2.317543,0.82359 3.406077,0.317609 1.162177,-0.490108 1.971174,-1.661192 2.071867,-2.914562 0.201563,-1.842211 -1.317729,-3.6646068 -3.162039,-3.7876965 -0.121141,-0.01011 -0.242744,-0.014096 -0.364288,-0.012806 z"
      id="cogwheelInner" />
  </symbol>
</svg>
