<?xml version="1.0" encoding="UTF-8" standalone="no"?>
<svg
   width="24"
   height="18"
   viewBox="0 0 24 18"
   version="1.1"
   xmlns="http://www.w3.org/2000/svg"
   xmlns:svg="http://www.w3.org/2000/svg">
  <path
     id="laptop"
     stroke="currentColor"
     style="stroke-width:0.75;stroke-linecap:butt;stroke-linejoin:round;"
     d="M 1.8293481,17.080851 H 22.23123 Z M 23.624964,16.716879 c 0,0 -1.325701,0.907881 -1.957007,0.907881 H 2.3322491 c -0.6314111,0 -1.95721298,-0.907881 -1.95721298,-0.907881 z M 3.562848,14.598517 c -0.4479459,0 -0.8209279,-0.146987 -1.144788,-0.456756 C 2.0939291,13.831722 1.9369052,13.471017 1.9369052,13.034871 V 1.9385727 c 0,-0.4361375 0.1570239,-0.796821 0.4811548,-1.10684446 C 2.7419201,0.52195888 3.1149021,0.375 3.562848,0.375 h 16.874595 c 0.448005,0 0.820986,0.14695888 1.144856,0.45672824 0.324063,0.31002346 0.481165,0.67070696 0.481165,1.10684446 V 13.034871 c 0,0.436146 -0.157102,0.796851 -0.481165,1.10689 -0.32387,0.309769 -0.696851,0.456756 -1.144856,0.456756 z"
     />
</svg>
