<?xml version="1.0" encoding="UTF-8" standalone="no"?>
<svg
   width="100%"
   height="100%"
   viewBox="0 0 24 24"
   version="1.1"
   id="settings"
   xmlns="http://www.w3.org/2000/svg"
   xmlns:svg="http://www.w3.org/2000/svg">
  <path
     id="cogwheel"
     style="display:inline;stroke:currentColor;stroke-width:1;stroke-linejoin:round;stroke-linecap:round;"
     d="M 11.971197,8.5166423 C 10.36612,8.4781655 8.8768336,9.7699584 8.6180583,11.369695 c -0.2517816,1.318699 0.3332294,2.749238 1.4428147,3.486748 0.95217,0.709394 2.268508,0.816168 3.33401,0.314747 1.137586,-0.485691 1.929466,-1.646221 2.028028,-2.888296 0.197298,-1.825609 -1.289847,-3.6315804 -3.095133,-3.7535609 -0.118579,-0.010017 -0.237609,-0.013969 -0.356581,-0.012691 z M 8.8860317,23.522834 8.4330905,19.835526 C 8.1877477,19.739504 7.9565592,19.624273 7.7395247,19.489842 7.5224906,19.35541 7.3101746,19.211374 7.1025768,19.057735 L 3.7338286,20.498091 0.61985983,15.024743 3.5356671,12.777791 c -0.018872,-0.134433 -0.028309,-0.264064 -0.028309,-0.388895 v -0.777792 c 0,-0.12483 0.00943,-0.254461 0.02831,-0.388895 L 0.61985983,8.9752565 3.7338286,3.5019103 7.1025768,4.9422645 C 7.3101746,4.7886268 7.5272087,4.6445916 7.7536793,4.5101583 7.9801496,4.3757252 8.2066203,4.2604968 8.4330905,4.1644733 L 8.8860317,0.47716641 H 15.11397 l 0.45294,3.68730689 c 0.245342,0.096024 0.476533,0.2112519 0.693565,0.345685 0.217036,0.1344333 0.429352,0.2784685 0.63695,0.4321062 l 3.368747,-1.4403542 3.113968,5.4733462 -2.915808,2.2469525 c 0.01887,0.134434 0.02832,0.264065 0.02832,0.388895 v 0.777792 c 0,0.124831 -0.01887,0.254462 -0.05662,0.388895 l 2.915806,2.246952 -3.113967,5.473348 -3.34044,-1.440356 c -0.207602,0.153639 -0.424639,0.297675 -0.651109,0.432107 -0.226471,0.134431 -0.452943,0.249662 -0.679412,0.345684 l -0.452941,3.687308 z"
     />
  <path
     style="display:inline;stroke:currentColor;stroke-width:1;"
     d="m 11.970517,8.4853613 c -1.63977,-0.038828 -3.1612502,1.264714 -3.425619,2.8789987 -0.2572247,1.330691 0.3404318,2.77424 1.474002,3.518457 0.972753,0.715845 2.317543,0.82359 3.406077,0.317609 1.162177,-0.490108 1.971174,-1.661192 2.071867,-2.914562 0.201563,-1.842211 -1.317729,-3.6646068 -3.162039,-3.7876965 -0.121141,-0.01011 -0.242744,-0.014096 -0.364288,-0.012806 z"
     id="cogwheelInner" />
</svg>
