<?xml version="1.0" encoding="UTF-8" standalone="no"?>
<svg
   width="800px"
   height="800px"
   viewBox="0 0 24 24"
   id="brackets"
   xmlns="http://www.w3.org/2000/svg">
  <path
     d="m 8.314287,22.999995 c -1.3570426,0 -2.4571418,-1.094377 -2.4571418,-2.444443 v -4.491054 c 0,-0.597911 0,-0.896866 -0.067891,-1.178222 C 5.7290667,14.636943 5.6297859,14.398488 5.4950608,14.17971 5.3431111,13.933066 5.1306052,13.721621 4.7056548,13.298855 L 3.4000034,12 4.7056548,10.701145 C 5.1306175,10.278378 5.3431111,10.066934 5.4950608,9.8202897 5.6297859,9.601512 5.7290667,9.3631055 5.7892544,9.1136745 5.8571452,8.8323557 5.8571452,8.5334125 5.8571452,7.9355261 V 3.444448 c 0,-1.3500294 1.1000992,-2.4444434 2.4571418,-2.4444434 m 7.371425,21.9999904 c 1.35708,0 2.457142,-1.094377 2.457142,-2.444443 v -4.491054 c 0,-0.597911 0,-0.896866 0.06794,-1.178222 0.0602,-0.249333 0.159469,-0.487788 0.29412,-0.706566 0.151974,-0.246644 0.364517,-0.458089 0.78948,-0.880855 L 20.599996,12 19.294394,10.701145 C 18.869431,10.278378 18.656888,10.066934 18.504914,9.8202897 18.370263,9.601512 18.270994,9.3631055 18.210794,9.1136745 18.142854,8.8323557 18.142854,8.5334125 18.142854,7.9355261 V 3.444448 c 0,-1.3500294 -1.100062,-2.4444434 -2.457142,-2.4444434"
     stroke="currentColor"
     stroke-width="2"
     stroke-linecap="round"
     stroke-linejoin="round"
     fill="none"
     id="path1" />
</svg>
