<?xml version="1.0" encoding="UTF-8" standalone="no"?>
<!-- Uploaded to: SVG Repo, www.svgrepo.com, Generator: SVG Repo Mixer Tools -->

<svg
   width="800px"
   height="800px"
   viewBox="0 0 24 24"
   id="mail"
   xmlns="http://www.w3.org/2000/svg">
  <path
     d="m 1.0023351,7.0867285 6.6595995,4.4628475 c 1.5678149,1.05058 2.3517654,1.575932 3.1989524,1.780078 0.748818,0.180317 1.529408,0.180317 2.278227,0 0.847187,-0.204146 1.631198,-0.729498 3.198976,-1.780078 L 22.997665,7.0867285 M 4.9126161,20.598225 H 19.087385 c 1.36872,0 2.053141,0 2.575897,-0.267773 0.459825,-0.235468 0.833745,-0.611334 1.067996,-1.07355 0.266387,-0.525474 0.266387,-1.213455 0.266387,-2.589294 V 7.3323921 c 0,-1.3758389 0,-2.0637706 -0.266387,-2.5892696 C 22.497027,4.2808696 22.123107,3.9050535 21.663282,3.6695358 21.140526,3.4017748 20.456105,3.4017748 19.087385,3.4017748 H 4.9126161 c -1.3687206,0 -2.0530931,0 -2.5758732,0.267761 C 1.8768817,3.9050535 1.5030099,4.2808696 1.2687108,4.7431225 1.0023351,5.2686215 1.0023351,5.9565409 1.0023351,7.3323921 v 9.3352159 c 0,1.375839 0,2.06382 0.2663757,2.589294 0.2342991,0.462216 0.6081709,0.838082 1.0680321,1.07355 0.5227801,0.267773 1.2071404,0.267773 2.5758732,0.267773 z"
     stroke="currentColor"
     stroke-width="2"
     stroke-linecap="round"
     stroke-linejoin="round"
     id="path1" />
</svg>
