<?xml version="1.0" encoding="UTF-8" standalone="no"?>
<svg
   width="800px"
   height="800px"
   viewBox="0 0 24 24"
   id="paintbrush"
   xmlns="http://www.w3.org/2000/svg">
  <path
     d="m 11.751318,10.612755 9.820474,-8.3209619 c 0.345599,-0.2928662 0.857767,-0.2716004 1.178098,0.048894 0.320218,0.3205286 0.341408,0.8332655 0.04884,1.179245 l -8.313204,9.8295829 m -2.734205,-2.73676 -2.4992529,2.117615 c -0.9876789,0.836906 -1.0499775,2.339912 -0.1349539,3.255757 0.9150468,0.915844 2.4166488,0.853578 3.2526608,-0.13508 l 2.115751,-2.501532 m -2.734205,-2.73676 2.734205,2.73676 m -4.381413,5.153228 c 0,2.035727 -1.6487147,3.686062 -3.6825752,3.686062 H 1.2207224 L 1.4590162,22.069491 C 2.6329111,21.481989 3.2181306,20.13754 2.8486334,18.876907 2.7758648,18.62875 2.7322399,18.370499 2.7592307,18.113268 c 0.1943517,-1.852671 1.7598622,-3.296587 3.6623041,-3.296587 2.0338605,0 3.6825752,1.650222 3.6825752,3.686062 z"
     stroke="currentColor"
     stroke-width="2"
     stroke-linecap="round"
     stroke-linejoin="round"
     fill="none"
     id="path1" />
</svg>
