<?xml version="1.0" encoding="UTF-8" standalone="no"?>

<svg
   width="24"
   height="24"
   viewBox="0 0 24 24"
   id="phone"
   xmlns="http://www.w3.org/2000/svg">
  <g
     id="Phone"
     style="fill-opacity:1;stroke-width:2.125;stroke-dasharray:none"
     transform="matrix(0.94117646,0,0,0.94117646,0.70588239,0.70588239)">
    <path
       id="Vector"
       d="M 8.7564322,1.9451401 C 8.3620162,0.95907872 7.4070312,0.3125 6.3450435,0.3125 H 2.7729621 C 1.4140814,0.3125 0.3125,1.4138521 0.3125,2.7727579 0.3125,14.323476 9.676265,23.6875 21.2267,23.6875 c 1.35883,0 2.460151,-1.101741 2.460151,-2.460607 l 6.49e-4,-3.572739 c 0,-1.062133 -0.64643,-2.016873 -1.63244,-2.41139 l -3.423693,-1.368997 c -0.885628,-0.35426 -1.894101,-0.194799 -2.627017,0.415943 l -0.883551,0.736964 c -1.031846,0.85994 -2.550269,0.791503 -3.500048,-0.1583 L 9.1327073,12.378026 C 8.1828906,11.428093 8.1126906,9.9109258 8.9726405,8.8790224 L 9.7093872,7.9954723 C 10.320107,7.2626023 10.481,6.2538522 10.12675,5.3681088 Z"
       stroke="currentColor"
       stroke-width="1"
       stroke-linecap="round"
       stroke-linejoin="round"
       style="fill-opacity:1;stroke-width:2.125;stroke-dasharray:none" />
  </g>
</svg>
