<?xml version="1.0" encoding="UTF-8" standalone="no"?>
<!-- Uploaded to: SVG Repo, www.svgrepo.com, Generator: SVG Repo Mixer Tools -->

<svg
   width="800px"
   height="800px"
   viewBox="0 0 24 24"
   id="phone"
   xmlns="http://www.w3.org/2000/svg">
  <path
     d="m 1.0015158,4.055744 c 0,10.462712 8.4804066,18.944446 18.9415082,18.944446 0.471949,0 0.939866,-0.01723 1.40326,-0.05121 0.531707,-0.03899 0.797499,-0.05842 1.039584,-0.197755 0.200413,-0.115378 0.390439,-0.319978 0.49089,-0.528367 0.121348,-0.251533 0.121348,-0.544989 0.121348,-1.131778 v -3.443367 c 0,-0.493533 0,-0.7403 -0.08126,-0.951744 -0.07162,-0.18688 -0.188198,-0.353224 -0.339241,-0.484491 C 22.406642,16.062856 22.1747,15.978522 21.711061,15.809856 L 17.792246,14.384622 C 17.252719,14.188456 16.982894,14.090311 16.727,14.106933 c -0.225709,0.01467 -0.442864,0.09179 -0.627391,0.222567 -0.209212,0.148256 -0.356834,0.394411 -0.652199,0.886845 l -1.003533,1.672733 C 11.205612,15.422289 8.580441,12.793289 7.1116798,9.5557443 L 8.7841906,8.5520798 C 9.2764498,8.2566809 9.5225794,8.1089753 9.6708609,7.8997064 9.8016184,7.7151753 9.8787287,7.4979742 9.8933931,7.2722664 9.9100127,7.0162964 9.8118835,6.746503 9.6157472,6.2069163 L 8.1907225,2.2874449 C 8.0220942,1.8236727 7.9377862,1.5917805 7.7891992,1.4207549 7.6579407,1.269676 7.4915976,1.1531493 7.3047854,1.0814049 7.0933004,1.0001882 6.8465964,1.0001882 6.3531885,1.0001882 H 2.9103433 c -0.5867347,0 -0.8801081,0 -1.1316391,0.1213056 C 1.5703721,1.2219727 1.3658527,1.4120893 1.2504439,1.6125582 1.1111077,1.8546071 1.0916407,2.1205016 1.0527068,2.6523027 1.0187831,3.1156839 1.0015158,3.5836973 1.0015158,4.055744 Z"
     stroke="currentColor"
     stroke-width="2"
     stroke-linecap="round"
     stroke-linejoin="round"
     id="path1" />
</svg>
