<?xml version="1.0" encoding="UTF-8" standalone="no"?>
<svg
   id="uk-flag"
   width="800"
   height="533.33331"
   viewBox="0 0 800 533.33329"
   xml:space="preserve"
   version="1.1"
   xmlns="http://www.w3.org/2000/svg"
   xmlns:svg="http://www.w3.org/2000/svg"><defs
   id="defs1" />
  <style
   type="text/css"
   id="style1">.st0{fill:#FEFEFE;} .st1{fill:#C8102E;} .st2{fill:#012169;}</style>
  <g
   id="g12"
   transform="scale(14.492754,13.888889)"
   style="stroke-width:0.046476">
    <path
   class="st0"
   d="m 2.87,38.4 h 49.46 c 1.59,-0.09 2.87,-1.42 2.87,-3.03 V 3.03 C 55.2,1.37 53.85,0.01 52.19,0 H 3.01 C 1.35,0.01 0,1.37 0,3.03 v 32.33 c 0,1.62 1.28,2.95 2.87,3.04 z"
   id="path1"
   style="stroke-width:0.046476" />
    <polygon
   class="st1"
   points="31.42,0 23.74,0 23.74,15.35 0,15.35 0,23.03 23.74,23.03 23.74,38.4 31.42,38.4 31.42,23.03 55.2,23.03 55.2,15.35 31.42,15.35 "
   id="polygon1"
   style="stroke-width:0.046476" />
    <path
   class="st2"
   d="M 33.98,12.43 V 0 h 18.23 c 1.26,0.02 2.34,0.81 2.78,1.92 z"
   id="path2"
   style="stroke-width:0.046476" />
    <path
   class="st2"
   d="M 33.98,25.97 V 38.4 h 18.35 c 1.21,-0.07 2.23,-0.85 2.66,-1.92 z"
   id="path3"
   style="stroke-width:0.046476" />
    <path
   class="st2"
   d="M 21.18,25.97 V 38.4 H 2.87 C 1.66,38.33 0.63,37.55 0.21,36.46 Z"
   id="path4"
   style="stroke-width:0.046476" />
    <path
   class="st2"
   d="M 21.18,12.43 V 0 H 2.99 C 1.73,0.02 0.64,0.82 0.21,1.94 Z"
   id="path5"
   style="stroke-width:0.046476" />
    <polygon
   class="st2"
   points="7.65,12.8 0,8.97 0,12.8 "
   id="polygon5"
   style="stroke-width:0.046476" />
    <polygon
   class="st2"
   points="47.51,12.8 55.2,8.95 55.2,12.8 "
   id="polygon6"
   style="stroke-width:0.046476" />
    <polygon
   class="st2"
   points="47.51,25.6 55.2,29.45 55.2,25.6 "
   id="polygon7"
   style="stroke-width:0.046476" />
    <polygon
   class="st2"
   points="7.65,25.6 0,29.43 0,25.6 "
   id="polygon8"
   style="stroke-width:0.046476" />
    <polygon
   class="st1"
   points="55.2,5.4 55.2,3.25 36.15,12.8 40.41,12.8 "
   id="polygon9"
   style="stroke-width:0.046476" />
    <polygon
   class="st1"
   points="19.05,25.6 19.01,25.6 14.75,25.6 0,32.98 0,35.13 "
   id="polygon10"
   style="stroke-width:0.046476" />
    <polygon
   class="st1"
   points="0,7.55 10.52,12.81 14.78,12.81 0,5.41 "
   id="polygon11"
   style="stroke-width:0.046476" />
    <polygon
   class="st1"
   points="55.2,30.88 44.63,25.59 40.37,25.59 55.2,33.02 "
   id="polygon12"
   style="stroke-width:0.046476" />
  </g>
</svg>
